<svg width="471" height="152" viewBox="0 0 471 152" fill="none" xmlns="http://www.w3.org/2000/svg">
<g id="sheer">
<g id="S">
<path id="Vector 91" d="M31 10L7 37.1484V149H81V37.1484L31 10Z" fill="#A69677"/>
<path id="Vector 90" d="M24 0L0 27.1484V139H74V27.1484L24 0Z" fill="#D8C1A6"/>
<path id="S_2" d="M45.88 67.06L35.38 61.88C31.04 59.78 30.06 58.94 30.06 52.64V43.4C30.06 41.02 32.16 38.92 34.54 38.92H38.18C40.56 38.92 42.66 41.02 42.66 43.4V56.14L56.66 51.52V43.4C56.66 33.6 48.68 25.48 38.74 25.48H33.98C24.04 25.48 16.06 33.6 16.06 43.4V54.88C16.06 63.42 21.24 70.14 27.26 73.22L37.06 78.12C41.82 80.5 43.08 82.6 43.08 87.78V108.92C43.08 111.3 40.98 113.4 38.6 113.4H34.4C31.88 113.4 29.92 111.3 29.92 108.92V96.46L15.92 101.08V108.92C15.92 118.86 23.9 126.84 33.84 126.84H39.16C48.96 126.84 57.08 118.86 57.08 108.92V90.3C57.08 82.18 57.08 72.66 45.88 67.06Z" fill="black"/>
</g>
<g id="h-02">
<path id="Vector 93" d="M102 148V41.2984L159.588 17L191 148H102Z" fill="#9E9E9E"/>
<path id="Vector 92" d="M91 141V34.2984L149.235 10L181 141H91Z" fill="#403B33"/>
<path id="h" d="M161.94 125.04C161.94 126.16 161.62 126.72 160.98 126.72C159.38 126.72 157.4 126.6 155.04 126.36C152.48 126.12 150.24 126 148.32 126C146.32 126 144.02 126.12 141.42 126.36C139.06 126.6 137.08 126.72 135.48 126.72C134.84 126.72 134.52 126.16 134.52 125.04C134.52 124.04 134.84 123.5 135.48 123.42C138.24 123.1 140.04 122.32 140.88 121.08C141.76 119.84 142.2 117.24 142.2 113.28V93.24C142.2 84.6 138.28 80.28 130.44 80.28C125.48 80.28 121.2 82.28 117.6 86.28V113.28C117.6 116.88 118.12 119.38 119.16 120.78C120.2 122.18 122.24 123.06 125.28 123.42C125.92 123.5 126.24 124.04 126.24 125.04C126.24 126.16 125.92 126.72 125.28 126.72C123.64 126.72 121.5 126.6 118.86 126.36C115.9 126.12 113.44 126 111.48 126C109.48 126 107.2 126.12 104.64 126.36C102.36 126.6 100.4 126.72 98.76 126.72C98.12 126.72 97.8 126.16 97.8 125.04C97.8 124.04 98.12 123.5 98.76 123.42C102.12 123.06 104.3 122.28 105.3 121.08C106.3 119.84 106.8 117.24 106.8 113.28V57.54C106.8 54.3 106.4 52.18 105.6 51.18C104.84 50.18 103.04 49.52 100.2 49.2C99.56 49.12 99.24 48.62 99.24 47.7C99.24 46.66 99.56 46.14 100.2 46.14C107.04 44.54 112.1 42.42 115.38 39.78C115.98 39.3 116.48 39.06 116.88 39.06C118 39.06 118.56 39.38 118.56 40.02C117.92 46.58 117.6 53.54 117.6 60.9V81.24C123.32 75.8 128.96 73.08 134.52 73.08C140.2 73.08 144.66 74.64 147.9 77.76C151.18 80.88 152.82 85.08 152.82 90.36V113.28C152.82 117.2 153.32 119.78 154.32 121.02C155.36 122.22 157.58 123.02 160.98 123.42C161.62 123.5 161.94 124.04 161.94 125.04Z" fill="#BF8A49"/>
</g>
<g id="e-04">
<path id="Vector 95" d="M196 148L208.952 65H264L252.127 148H196Z" fill="#403B33"/>
<path id="Vector 94" d="M191 139L203.952 56H259L247.127 139H191Z" fill="#A69677"/>
<path id="e" d="M233.04 69C234.72 69 236.12 69.32 237.24 69.96C238.44 70.52 239.4 71.32 240.12 72.36C240.84 73.4 241.36 74.6 241.68 75.96C242 77.32 242.12 78.76 242.04 80.28C242.04 82.44 241.24 84.2 239.64 85.56C238.04 86.84 236.4 87.96 234.72 88.92C233.2 89.96 231.56 90.88 229.8 91.68C228.12 92.48 226.52 93.36 225 94.32C223.56 95.28 222.32 96.4 221.28 97.68C220.32 98.96 219.8 100.6 219.72 102.6V107.64C219.56 109 219.84 110.36 220.56 111.72C221.28 113 222.2 113.64 223.32 113.64C223.4 113.72 223.72 113.6 224.28 113.28C224.84 112.96 225.44 112.6 226.08 112.2C226.8 111.72 227.48 111.24 228.12 110.76C228.84 110.28 229.36 109.92 229.68 109.68C230.88 109.12 231.8 108.68 232.44 108.36C233.16 107.96 233.68 107.84 234 108C234.56 108 235.04 108.08 235.44 108.24C235.84 108.4 236.04 109 236.04 110.04C235.88 111.8 235.12 113.52 233.76 115.2C232.4 116.8 230.92 118.32 229.32 119.76C227.72 121.12 226.16 122.32 224.64 123.36C223.12 124.4 222.12 125.16 221.64 125.64C220.28 126.84 219 127.48 217.8 127.56C216.68 127.64 215.52 127.68 214.32 127.68C213.6 127.6 212.84 127.28 212.04 126.72C211.32 126.16 210.64 125.52 210 124.8C209.44 124 209 123.2 208.68 122.4C208.36 121.6 208.24 120.92 208.32 120.36V118.32C208.32 117.76 208.16 117.16 207.84 116.52C207.68 116.2 207.52 115.92 207.36 115.68L207.72 113.28V111.36C207.72 111.04 207.8 110.2 207.96 108.84C208.12 107.4 208.32 105.88 208.56 104.28C208.8 102.6 209 101.04 209.16 99.6C209.4 98.08 209.56 97.08 209.64 96.6C209.96 96.36 210.12 96.12 210.12 95.88C210.12 95.64 210.08 95.4 210 95.16C209.92 94.92 209.88 94.64 209.88 94.32C209.88 93.92 210.04 93.48 210.36 93C210.36 92.04 210.56 91.04 210.96 90C211.2 89.44 211.44 88.88 211.68 88.32L213.36 84.36C213.52 82.6 214.36 80.8 215.88 78.96C217.4 77.04 219.16 75.32 221.16 73.8C223.24 72.28 225.36 71.08 227.52 70.2C229.68 69.24 231.52 68.84 233.04 69ZM227.64 78C227.24 78 226.84 78.32 226.44 78.96C226.04 79.52 225.64 80.16 225.24 80.88C224.84 81.76 224.44 82.68 224.04 83.64C223.96 84.04 223.84 84.52 223.68 85.08C223.52 85.56 223.4 86.04 223.32 86.52C223.24 86.92 223.28 87.28 223.44 87.6C223.6 87.84 223.92 87.96 224.4 87.96C224.8 88.04 225.4 87.96 226.2 87.72C227 87.48 227.8 87.12 228.6 86.64C229.48 86.16 230.24 85.6 230.88 84.96C231.6 84.24 232 83.48 232.08 82.68V80.64C232.08 80.24 231.96 79.88 231.72 79.56C231.48 79.24 231.2 79 230.88 78.84C230.56 78.6 230.16 78.4 229.68 78.24L227.64 78Z" fill="#D8C1A6"/>
</g>
<g id="e-05">
<path id="Vector 97" d="M279 147V63H371V147H279Z" fill="#D8C1A6"/>
<path id="Vector 96" d="M272 140V56H364V140H272Z" fill="#BF8A49"/>
<path id="e_2" d="M299.8 68C289.84 68 281.8 76.04 281.8 86V110C281.8 119.96 289.84 128 299.8 128H347.8L351.4 116H299.8C296.44 116 293.8 113.36 293.8 110V104H353.8V86C353.8 76.04 345.76 68 335.8 68H299.8ZM335.8 80C339.16 80 341.8 82.64 341.8 86V92H293.8V86C293.8 82.64 296.44 80 299.8 80H335.8Z" fill="#212121"/>
</g>
<g id="r-04">
<path id="Vector 99" d="M389 152V58H455L440.7 136.518L389 152Z" fill="#9E9E9E"/>
<path id="Vector 98" d="M382 146V52H448L433.7 130.518L382 146Z" fill="#212121"/>
<path id="r" d="M394.75 125H411.895V88.01C414.055 85.04 416.755 83.555 420.535 83.555C423.37 83.555 425.53 84.23 427.15 85.04L427.96 84.77C428.905 79.64 429.985 74.51 430.795 69.38C429.04 68.165 426.475 67.085 422.83 67.085C417.565 67.085 412.705 70.595 410.815 74.51L404.2 68.84H394.75V125Z" fill="#A69677"/>
</g>
</g>
</svg>
