<svg width="40" height="38" viewBox="0 0 40 38" fill="none" xmlns="http://www.w3.org/2000/svg">
<path d="M22.4558 0.845773C21.7536 0.297612 20.8894 0 19.9998 0C19.1102 0 18.246 0.297612 17.5439 0.845773L0.776192 13.9321C-0.727778 15.1103 0.100205 17.5289 2.00617 17.5289H4.00013V33.5858C4.00013 34.6504 4.42155 35.6714 5.17168 36.4243C5.92181 37.1771 6.9392 37.6 8.00005 37.6H15.9999V25.5573C15.9999 24.4927 16.4213 23.4717 17.1714 22.7188C17.9216 21.966 18.939 21.5431 19.9998 21.5431C21.0606 21.5431 22.078 21.966 22.8282 22.7188C23.5783 23.4717 23.9997 24.4927 23.9997 25.5573V37.6H31.9996C33.0604 37.6 34.0778 37.1771 34.8279 36.4243C35.5781 35.6714 35.9995 34.6504 35.9995 33.5858V17.5289H37.9934C39.8974 17.5289 40.7294 15.1103 39.2234 13.9341L22.4558 0.845773Z" fill="black"/>
</svg>
