<svg width="34" height="32" viewBox="0 0 34 32" fill="none" xmlns="http://www.w3.org/2000/svg">
<path d="M18.69 1.22581L18.69 1.22584L32.9424 12.2352C32.9425 12.2353 32.9425 12.2353 32.9425 12.2354C33.7223 12.8382 33.3051 14.0947 32.2944 14.0947H30.5996H29.9496V14.7447V28.2513C29.9496 28.973 29.6609 29.666 29.1457 30.1777C28.6303 30.6896 27.9304 30.9779 27.1996 30.9779H21.0498V21.498C21.0498 20.4286 20.622 19.404 19.862 18.6492C19.1021 17.8945 18.0725 17.4714 16.9998 17.4714C15.9272 17.4714 14.8975 17.8945 14.1377 18.6492C13.3777 19.404 12.9499 20.4286 12.9499 21.498V30.9779H6.80004C6.06927 30.9779 5.36933 30.6896 4.85396 30.1777C4.33874 29.666 4.05011 28.973 4.05011 28.2513V14.7447V14.0947H3.40011H1.70524C0.696422 14.0947 0.275933 12.8399 1.05758 12.2333C1.05772 12.2332 1.05787 12.2331 1.05801 12.233L15.3096 1.22587L15.3097 1.22581C15.7924 0.85289 16.3871 0.65 16.9998 0.65C17.6126 0.65 18.2073 0.85289 18.69 1.22581Z" stroke="#F9F9F9" stroke-width="1.3"/>
</svg>
