<svg width="36" height="34" viewBox="0 0 36 34" fill="none" xmlns="http://www.w3.org/2000/svg">
<path d="M20.2102 0.753286C19.5782 0.265067 18.8005 0 17.9998 0C17.1992 0 16.4214 0.265067 15.7895 0.753286L0.698573 12.4086C-0.655 13.458 0.0901849 15.6121 1.80555 15.6121H3.60011V29.9131C3.60011 30.8613 3.97939 31.7707 4.65451 32.4412C5.32963 33.1117 6.24528 33.4884 7.20004 33.4884H14.3999V22.7626C14.3999 21.8144 14.7792 20.905 15.4543 20.2345C16.1294 19.564 17.0451 19.1873 17.9998 19.1873C18.9546 19.1873 19.8702 19.564 20.5454 20.2345C21.2205 20.905 21.5998 21.8144 21.5998 22.7626V33.4884H28.7996C29.7544 33.4884 30.67 33.1117 31.3451 32.4412C32.0203 31.7707 32.3995 30.8613 32.3995 29.9131V15.6121H34.1941C35.9077 15.6121 36.6564 13.458 35.3011 12.4104L20.2102 0.753286Z" fill="#F9F9F9"/>
</svg>
