<svg width="34" height="32" viewBox="0 0 34 32" fill="none" xmlns="http://www.w3.org/2000/svg">
<path d="M19.0874 0.711437C18.4906 0.250342 17.756 0 16.9998 0C16.2437 0 15.5091 0.250342 14.9123 0.711437L0.659763 11.7193C-0.618611 12.7103 0.0851746 14.7447 1.70524 14.7447H3.40011V28.2513C3.40011 29.1468 3.75831 30.0057 4.39592 30.6389C5.03353 31.2722 5.89832 31.6279 6.80004 31.6279H13.5999V21.498C13.5999 20.6025 13.9581 19.7436 14.5957 19.1104C15.2333 18.4771 16.0981 18.1214 16.9998 18.1214C17.9016 18.1214 18.7663 18.4771 19.4039 19.1104C20.0416 19.7436 20.3998 20.6025 20.3998 21.498V31.6279H27.1996C28.1013 31.6279 28.9661 31.2722 29.6037 30.6389C30.2413 30.0057 30.5996 29.1468 30.5996 28.2513V14.7447H32.2944C33.9128 14.7447 34.62 12.7103 33.3399 11.721L19.0874 0.711437Z" fill="#F9F9F9"/>
</svg>
