<svg width="40" height="38" viewBox="0 0 40 38" fill="none" xmlns="http://www.w3.org/2000/svg">
<path d="M22.4558 0.836984C21.7536 0.294519 20.8894 0 19.9998 0C19.1102 0 18.246 0.294519 17.5439 0.836984L0.776192 13.7874C-0.727778 14.9533 0.100205 17.3467 2.00617 17.3467H4.00013V33.2368C4.00013 34.2904 4.42155 35.3008 5.17168 36.0458C5.92181 36.7908 6.9392 37.2093 8.00005 37.2093H15.9999V25.2918C15.9999 24.2382 16.4213 23.2278 17.1714 22.4828C17.9216 21.7378 18.939 21.3193 19.9998 21.3193C21.0606 21.3193 22.078 21.7378 22.8282 22.4828C23.5783 23.2278 23.9997 24.2382 23.9997 25.2918V37.2093H31.9996C33.0604 37.2093 34.0778 36.7908 34.8279 36.0458C35.5781 35.3008 35.9995 34.2904 35.9995 33.2368V17.3467H37.9934C39.8974 17.3467 40.7294 14.9533 39.2234 13.7894L22.4558 0.836984Z" fill="#F9F9F9"/>
</svg>
