<svg width="36" height="36" viewBox="0 0 36 36" fill="none" xmlns="http://www.w3.org/2000/svg">
<path d="M18 27C18.51 27 18.9378 26.8272 19.2834 26.4816C19.629 26.136 19.8012 25.7088 19.8 25.2V19.8H25.245C25.755 19.8 26.175 19.6272 26.505 19.2816C26.835 18.936 27 18.5088 27 18C27 17.49 26.8272 17.0622 26.4816 16.7166C26.136 16.371 25.7088 16.1988 25.2 16.2H19.8V10.755C19.8 10.245 19.6272 9.825 19.2816 9.495C18.936 9.165 18.5088 9 18 9C17.49 9 17.0622 9.1728 16.7166 9.5184C16.371 9.864 16.1988 10.2912 16.2 10.8V16.2H10.755C10.245 16.2 9.825 16.3728 9.495 16.7184C9.165 17.064 9 17.4912 9 18C9 18.51 9.1728 18.9378 9.5184 19.2834C9.864 19.629 10.2912 19.8012 10.8 19.8H16.2V25.245C16.2 25.755 16.3728 26.175 16.7184 26.505C17.064 26.835 17.4912 27 18 27ZM18 36C15.51 36 13.17 35.5272 10.98 34.5816C8.79 33.636 6.885 32.3538 5.265 30.735C3.645 29.115 2.3628 27.21 1.4184 25.02C0.474 22.83 0.0012 20.49 0 18C0 15.51 0.4728 13.17 1.4184 10.98C2.364 8.79 3.6462 6.885 5.265 5.265C6.885 3.645 8.79 2.3628 10.98 1.4184C13.17 0.474 15.51 0.0012 18 0C20.49 0 22.83 0.4728 25.02 1.4184C27.21 2.364 29.115 3.6462 30.735 5.265C32.355 6.885 33.6378 8.79 34.5834 10.98C35.529 13.17 36.0012 15.51 36 18C36 20.49 35.5272 22.83 34.5816 25.02C33.636 27.21 32.3538 29.115 30.735 30.735C29.115 32.355 27.21 33.6378 25.02 34.5834C22.83 35.529 20.49 36.0012 18 36Z" fill="white"/>
</svg>
