<svg width="37" height="37" viewBox="0 0 37 37" fill="none" xmlns="http://www.w3.org/2000/svg">
<path id="donuts-arrow" d="M37 18.5C37 8.288 28.712 0 18.5 0C8.288 0 0 8.288 0 18.5C0 28.712 8.288 37 18.5 37C28.712 37 37 28.712 37 18.5ZM18.5 23.6615V20.35H12.95C11.9325 20.35 11.1 19.5175 11.1 18.5C11.1 17.4825 11.9325 16.65 12.95 16.65H18.5V13.3385C18.5 12.506 19.499 12.099 20.0725 12.691L25.234 17.8525C25.604 18.2225 25.604 18.796 25.234 19.166L20.0725 24.3275C19.9421 24.4553 19.7767 24.5417 19.5973 24.5757C19.4179 24.6098 19.2324 24.5899 19.0642 24.5187C18.8961 24.4475 18.7528 24.3281 18.6523 24.1755C18.5519 24.023 18.4989 23.8441 18.5 23.6615Z" fill="#FFC9E1"/>
</svg>
