<svg width="28" height="28" viewBox="0 0 28 28" fill="none" xmlns="http://www.w3.org/2000/svg">
<path d="M14 21C14.3967 21 14.7294 20.8656 14.9982 20.5968C15.267 20.328 15.4009 19.9957 15.4 19.6V15.4H19.635C20.0317 15.4 20.3583 15.2656 20.615 14.9968C20.8717 14.728 21 14.3957 21 14C21 13.6033 20.8656 13.2706 20.5968 13.0018C20.328 12.733 19.9957 12.5991 19.6 12.6H15.4V8.365C15.4 7.96833 15.2656 7.64167 14.9968 7.385C14.728 7.12833 14.3957 7 14 7C13.6033 7 13.2706 7.1344 13.0018 7.4032C12.733 7.672 12.5991 8.00427 12.6 8.4V12.6H8.365C7.96833 12.6 7.64167 12.7344 7.385 13.0032C7.12833 13.272 7 13.6043 7 14C7 14.3967 7.1344 14.7294 7.4032 14.9982C7.672 15.267 8.00427 15.4009 8.4 15.4H12.6V19.635C12.6 20.0317 12.7344 20.3583 13.0032 20.615C13.272 20.8717 13.6043 21 14 21ZM14 28C12.0633 28 10.2433 27.6323 8.54 26.8968C6.83667 26.1613 5.355 25.1641 4.095 23.905C2.835 22.645 1.83773 21.1633 1.1032 19.46C0.368667 17.7567 0.000933333 15.9367 0 14C0 12.0633 0.367733 10.2433 1.1032 8.54C1.83867 6.83667 2.83593 5.355 4.095 4.095C5.355 2.835 6.83667 1.83773 8.54 1.1032C10.2433 0.368667 12.0633 0.000933333 14 0C15.9367 0 17.7567 0.367733 19.46 1.1032C21.1633 1.83867 22.645 2.83593 23.905 4.095C25.165 5.355 26.1627 6.83667 26.8982 8.54C27.6337 10.2433 28.0009 12.0633 28 14C28 15.9367 27.6323 17.7567 26.8968 19.46C26.1613 21.1633 25.1641 22.645 23.905 23.905C22.645 25.165 21.1633 26.1627 19.46 26.8982C17.7567 27.6337 15.9367 28.0009 14 28Z" fill="#F6ADCD"/>
</svg>
