<svg width="24" height="875" viewBox="0 0 24 875" fill="none" xmlns="http://www.w3.org/2000/svg">
<rect x="6" width="15" height="875" fill="#F6ADCD"/>
<path d="M21 0L1 20" stroke="white" stroke-width="2"/>
<path d="M22 24L1 45" stroke="white" stroke-width="2"/>
<path d="M22 49L1 70" stroke="white" stroke-width="2"/>
<path d="M22 74L1 95" stroke="white" stroke-width="2"/>
<path d="M22 99L1 120" stroke="white" stroke-width="2"/>
<path d="M22 124L1 145" stroke="white" stroke-width="2"/>
<path d="M22 149L1 170" stroke="white" stroke-width="2"/>
<path d="M22 174L1 195" stroke="white" stroke-width="2"/>
<path d="M22 199L1 220" stroke="white" stroke-width="2"/>
<path d="M22 224L1 245" stroke="white" stroke-width="2"/>
<path d="M22 249L1 270" stroke="white" stroke-width="2"/>
<path d="M22 274L1 295" stroke="white" stroke-width="2"/>
<path d="M22 299L1 320" stroke="white" stroke-width="2"/>
<path d="M22 324L1 345" stroke="white" stroke-width="2"/>
<path d="M22 349L2 369" stroke="white" stroke-width="2"/>
<path d="M23 373L2 394" stroke="white" stroke-width="2"/>
<path d="M23 398L2 419" stroke="white" stroke-width="2"/>
<path d="M23 423L2 444" stroke="white" stroke-width="2"/>
<path d="M23 448L2 469" stroke="white" stroke-width="2"/>
<path d="M23 473L2 494" stroke="white" stroke-width="2"/>
<path d="M23 498L2 519" stroke="white" stroke-width="2"/>
<path d="M23 523L2 544" stroke="white" stroke-width="2"/>
<path d="M23 548L2 569" stroke="white" stroke-width="2"/>
<path d="M23 573L2 594" stroke="white" stroke-width="2"/>
<path d="M23 598L2 619" stroke="white" stroke-width="2"/>
<path d="M23 623L2 644" stroke="white" stroke-width="2"/>
<path d="M23 648L2 669" stroke="white" stroke-width="2"/>
<path d="M23 673L2 694" stroke="white" stroke-width="2"/>
<path d="M22 698L2 718" stroke="white" stroke-width="2"/>
<path d="M23 722L2 743" stroke="white" stroke-width="2"/>
<path d="M23 747L2 768" stroke="white" stroke-width="2"/>
<path d="M23 772L2 793" stroke="white" stroke-width="2"/>
<path d="M23 797L2 818" stroke="white" stroke-width="2"/>
<path d="M23 822L2 843" stroke="white" stroke-width="2"/>
<path d="M23 847L2 868" stroke="white" stroke-width="2"/>
</svg>
