<svg width="30" height="30" viewBox="0 0 30 30" fill="none" xmlns="http://www.w3.org/2000/svg">
<path id="pink-arrow" d="M30 15C30 6.72 23.28 0 15 0C6.72 0 0 6.72 0 15C0 23.28 6.72 30 15 30C23.28 30 30 23.28 30 15ZM15 19.185V16.5H10.5C9.675 16.5 9 15.825 9 15C9 14.175 9.675 13.5 10.5 13.5H15V10.815C15 10.14 15.81 9.81 16.275 10.29L20.46 14.475C20.76 14.775 20.76 15.24 20.46 15.54L16.275 19.725C16.1693 19.8287 16.0352 19.8987 15.8897 19.9263C15.7442 19.9539 15.5938 19.9378 15.4575 19.88C15.3211 19.8223 15.2049 19.7255 15.1235 19.6018C15.0421 19.4781 14.9991 19.3331 15 19.185Z" fill="#FFC9E1"/>
</svg>
