<svg width="38" height="35" viewBox="0 0 38 35" fill="none" xmlns="http://www.w3.org/2000/svg">
<path id="shopping-cart" d="M21.8736 31.7593C21.8736 32.4002 22.0628 33.0268 22.4172 33.5597C22.7716 34.0927 23.2753 34.508 23.8646 34.7533C24.454 34.9986 25.1025 35.0628 25.7281 34.9377C26.3538 34.8127 26.9285 34.504 27.3795 34.0508C27.8306 33.5976 28.1378 33.0201 28.2622 32.3915C28.3867 31.7629 28.3228 31.1112 28.0787 30.5191C27.8346 29.9269 27.4212 29.4208 26.8908 29.0647C26.3604 28.7086 25.7368 28.5185 25.0989 28.5185C24.2448 28.5228 23.4269 28.8656 22.823 29.4724C22.219 30.0792 21.8779 30.9011 21.8736 31.7593ZM8.32748 28.5185C8.96538 28.5185 9.58895 28.7086 10.1193 29.0647C10.6497 29.4208 11.0631 29.9269 11.3072 30.5191C11.5514 31.1112 11.6152 31.7629 11.4908 32.3915C11.3663 33.0201 11.0592 33.5976 10.6081 34.0508C10.157 34.504 9.58234 34.8127 8.9567 34.9377C8.33106 35.0628 7.68256 34.9986 7.09322 34.7533C6.50388 34.508 6.00016 34.0927 5.64576 33.5597C5.29136 33.0268 5.1022 32.4002 5.1022 31.7593C5.10644 30.9011 5.44761 30.0792 6.05155 29.4724C6.65549 28.8656 7.47339 28.5228 8.32748 28.5185ZM0.377177 8.96065L4.27976 22.6366C4.55173 23.5824 5.12146 24.4141 5.90355 25.0072C6.68564 25.6002 7.63796 25.9226 8.61775 25.9259H24.8086C25.7884 25.9226 26.7407 25.6002 27.5228 25.0072C28.3049 24.4141 28.8747 23.5824 29.1466 22.6366L33.0331 8.99306C33.0331 8.97685 33.0492 8.94444 33.0492 8.92824L34.4845 3.88889H36.0648C36.5781 3.88889 37.0703 3.68403 37.4332 3.31937C37.7961 2.95472 38 2.46014 38 1.94444C38 1.42875 37.7961 0.934169 37.4332 0.569515C37.0703 0.204861 36.5781 0 36.0648 0H34.0007C33.2999 0.00534038 32.6194 0.236475 32.0591 0.659412C31.4989 1.08235 31.0885 1.67477 30.8883 2.34954L29.7272 6.48148H2.24784C1.94851 6.4832 1.6536 6.55409 1.3859 6.68866C1.11821 6.82324 0.884914 7.01789 0.704072 7.25755C0.52323 7.49722 0.399688 7.77548 0.343003 8.0708C0.286319 8.36613 0.298011 8.67059 0.377177 8.96065ZM4.81193 10.3704H28.6145L25.4376 21.5671C25.3963 21.7026 25.313 21.8213 25.1999 21.9058C25.0867 21.9903 24.9496 22.0363 24.8086 22.037H8.61775C8.47676 22.0363 8.33967 21.9903 8.22653 21.9058C8.11338 21.8213 8.03009 21.7026 7.98882 21.5671L4.81193 10.3704Z" fill="#434343"/>
</svg>
