<svg width="126" height="34" viewBox="0 0 126 34" fill="none" xmlns="http://www.w3.org/2000/svg">
<g id="sns-icons">
<g id="insta-icon">
<circle id="Ellipse 11" cx="109" cy="17" r="16.5" fill="white" stroke="#D86356" stroke-dasharray="4 4"/>
<path id="Vector" d="M109 13.16C108.241 13.16 107.498 13.3852 106.867 13.8072C106.235 14.2291 105.743 14.8288 105.452 15.5305C105.162 16.2322 105.086 17.0043 105.234 17.7491C105.382 18.494 105.748 19.1783 106.285 19.7153C106.822 20.2523 107.506 20.618 108.251 20.7662C108.996 20.9144 109.768 20.8383 110.47 20.5477C111.171 20.2571 111.771 19.7649 112.193 19.1334C112.615 18.5019 112.84 17.7595 112.84 17C112.84 15.9816 112.435 15.0048 111.715 14.2847C110.995 13.5646 110.018 13.16 109 13.16ZM109 19.56C108.494 19.56 107.999 19.4099 107.578 19.1286C107.157 18.8473 106.829 18.4474 106.635 17.9797C106.441 17.5119 106.39 16.9972 106.489 16.5006C106.588 16.004 106.832 15.5478 107.19 15.1898C107.548 14.8318 108.004 14.588 108.501 14.4892C108.997 14.3904 109.512 14.4411 109.98 14.6349C110.447 14.8286 110.847 15.1568 111.129 15.5777C111.41 15.9987 111.56 16.4937 111.56 17C111.558 17.6783 111.287 18.3282 110.808 18.8079C110.328 19.2875 109.678 19.5579 109 19.56ZM112.52 9H105.48C104.292 9 103.152 9.472 102.312 10.3122C101.472 11.1523 101 12.2918 101 13.48V20.52C101 21.7082 101.472 22.8477 102.312 23.6878C103.152 24.528 104.292 25 105.48 25H112.52C113.708 25 114.848 24.528 115.688 23.6878C116.528 22.8477 117 21.7082 117 20.52V13.48C117 12.2918 116.528 11.1523 115.688 10.3122C114.848 9.472 113.708 9 112.52 9ZM115.72 20.52C115.72 20.9402 115.637 21.3563 115.476 21.7446C115.316 22.1328 115.08 22.4856 114.783 22.7827C114.486 23.0799 114.133 23.3156 113.745 23.4764C113.356 23.6372 112.94 23.72 112.52 23.72H105.48C105.06 23.72 104.644 23.6372 104.255 23.4764C103.867 23.3156 103.514 23.0799 103.217 22.7827C102.92 22.4856 102.684 22.1328 102.524 21.7446C102.363 21.3563 102.28 20.9402 102.28 20.52V13.48C102.28 12.6313 102.617 11.8174 103.217 11.2173C103.817 10.6171 104.631 10.28 105.48 10.28H112.52C112.94 10.28 113.356 10.3628 113.745 10.5236C114.133 10.6844 114.486 10.9201 114.783 11.2173C115.08 11.5144 115.316 11.8672 115.476 12.2554C115.637 12.6437 115.72 13.0598 115.72 13.48V20.52ZM114.12 12.84C114.12 13.0299 114.064 13.2155 113.958 13.3733C113.853 13.5312 113.703 13.6543 113.527 13.7269C113.352 13.7996 113.159 13.8186 112.973 13.7816C112.786 13.7445 112.615 13.6531 112.481 13.5188C112.347 13.3846 112.255 13.2135 112.218 13.0273C112.181 12.8411 112.2 12.648 112.273 12.4726C112.346 12.2972 112.469 12.1473 112.627 12.0418C112.785 11.9363 112.97 11.88 113.16 11.88C113.415 11.88 113.659 11.9811 113.839 12.1612C114.019 12.3412 114.12 12.5854 114.12 12.84Z" fill="#D86356"/>
</g>
<g id="fb-icon">
<circle id="Ellipse 9" cx="63" cy="17" r="16.5" fill="white" stroke="#425893" stroke-dasharray="4 4"/>
<path id="Vector_2" d="M64.4951 8C63.4074 8 62.3643 8.4539 61.5952 9.26185C60.8262 10.0698 60.3941 11.1656 60.3941 12.3082V14.7068H58.1995C58.0896 14.7068 58 14.8 58 14.9164V18.0836C58 18.1991 58.0887 18.2932 58.1995 18.2932H60.3941V24.7904C60.3941 24.9059 60.4828 25 60.5936 25H63.6084C63.7183 25 63.8079 24.9068 63.8079 24.7904V18.2932H66.022C66.1133 18.2932 66.1931 18.2279 66.2153 18.1348L66.969 14.9677C66.9764 14.9368 66.977 14.9045 66.9707 14.8733C66.9645 14.8421 66.9516 14.8128 66.9329 14.7877C66.9143 14.7625 66.8904 14.7422 66.8632 14.7282C66.8359 14.7142 66.806 14.7069 66.7757 14.7068H63.8079V12.3082C63.8079 12.2134 63.8257 12.1195 63.8602 12.032C63.8947 11.9444 63.9453 11.8648 64.0092 11.7977C64.073 11.7307 64.1487 11.6775 64.2321 11.6413C64.3155 11.605 64.4048 11.5863 64.4951 11.5863H66.8005C66.9104 11.5863 67 11.4932 67 11.3767V8.20959C67 8.09408 66.9113 8 66.8005 8H64.4951Z" stroke="#425893"/>
</g>
<g id="mail-icon">
<circle id="Ellipse 10" cx="17" cy="17" r="16.5" fill="white" stroke="#F6ADCD" stroke-dasharray="4 4"/>
<path id="Vector_3" d="M25 12.625C25 11.7312 24.28 11 23.4 11H10.6C9.72 11 9 11.7312 9 12.625V22.375C9 23.2688 9.72 24 10.6 24H23.4C24.28 24 25 23.2688 25 22.375V12.625ZM23.4 12.625L17 16.6875L10.6 12.625H23.4ZM23.4 22.375H10.6V14.25L17 18.3125L23.4 14.25V22.375Z" fill="#F6ADCD"/>
</g>
</g>
</svg>
